<?xml version="1.0" encoding="UTF-8" standalone="no"?>
<svg
   xmlns:dc="http://purl.org/dc/elements/1.1/"
   xmlns:cc="http://creativecommons.org/ns#"
   xmlns:rdf="http://www.w3.org/1999/02/22-rdf-syntax-ns#"
   xmlns:svg="http://www.w3.org/2000/svg"
   xmlns="http://www.w3.org/2000/svg"
   xmlns:sodipodi="http://sodipodi.sourceforge.net/DTD/sodipodi-0.dtd"
   xmlns:inkscape="http://www.inkscape.org/namespaces/inkscape"
   width="24"
   height="24"
   viewBox="0 0 6.3499999 6.3500002"
   version="1.1"
   id="svg8"
   inkscape:version="1.0.2-2 (e86c870879, 2021-01-15)"
   sodipodi:docname="IconCheck024024.svg">
  <defs
     id="defs2" />
  <sodipodi:namedview
     id="base"
     pagecolor="#ffffff"
     bordercolor="#666666"
     borderopacity="1.0"
     inkscape:pageopacity="0.0"
     inkscape:pageshadow="2"
     inkscape:zoom="11.2"
     inkscape:cx="11.353516"
     inkscape:cy="6.7233816"
     inkscape:document-units="mm"
     inkscape:current-layer="layer1"
     inkscape:document-rotation="0"
     showgrid="false"
     units="px"
     inkscape:window-width="1267"
     inkscape:window-height="1040"
     inkscape:window-x="182"
     inkscape:window-y="0"
     inkscape:window-maximized="0" />
  <metadata
     id="metadata5">
    <rdf:RDF>
      <cc:Work
         rdf:about="">
        <dc:format>image/svg+xml</dc:format>
        <dc:type
           rdf:resource="http://purl.org/dc/dcmitype/StillImage" />
        <dc:title></dc:title>
      </cc:Work>
    </rdf:RDF>
  </metadata>
  <g
     inkscape:label="Layer 1"
     inkscape:groupmode="layer"
     id="layer1">
    <path
       style="fill:#43d9c0;fill-opacity:1;stroke:#43d9c0;stroke-width:0.673056;stroke-linecap:square;stroke-miterlimit:4;stroke-dasharray:none;stroke-opacity:1"
       id="path837"
       d="M 0.99060109,3.8833445 C 1.291545,4.0567357 1.5466006,4.2599667 1.74621,4.4824282 1.9179004,4.6737745 1.9558412,4.751051 2.0850232,4.9519028 c 0.1045369,0.1832283 0.18699,0.3711305 0.2462071,0.5619166 0.012046,0.03881 0.022426,0.077833 0.031039,0.1169903 0.019698,0.089564 -0.00633,0.045829 0.020824,0.086807 0.064188,-0.046122 0.151281,-0.083141 0.1925597,-0.1383676 0.041939,-0.05611 0.02899,-0.1223455 0.047692,-0.1830615 0.0304,-0.098692 0.063312,-0.1971119 0.099578,-0.2950449 C 2.8310192,4.8092426 2.9542134,4.5230592 3.0887545,4.2351501 3.1714062,4.0582809 3.2607827,3.8826383 3.3467968,3.7063823 3.620651,3.1624664 3.9277316,2.6251809 4.2531778,2.0923114 4.4165883,1.8247511 4.6149196,1.5119405 4.7946752,1.2454617 4.8651845,1.1409353 4.9397662,1.0374759 5.0123115,0.93348294 5.069292,0.8537875 5.1262722,0.77409206 5.1832527,0.69439662 c 0,0 -0.081241,0.0231733 -0.081241,0.0231733 v 0 C 5.0555579,0.79426775 5.0091036,0.87096567 4.9626493,0.94766358 4.9012938,1.0484637 4.8409688,1.1495054 4.7785831,1.2500637 4.592582,1.5498754 4.4352206,1.7892813 4.2495045,2.0933686 3.9240613,2.6262427 3.6169847,3.163533 3.343134,3.7074533 3.2571209,3.8837106 3.1698324,4.059732 3.0850945,4.2362251 3.0079257,4.3969533 2.9339283,4.5582571 2.8574195,4.7191057 2.7941047,4.8522156 2.7292309,4.9850406 2.6656248,5.1180975 c -0.04924,0.1030052 -0.098172,0.2060669 -0.1467432,0.3091933 -0.030677,0.065134 -0.1000946,0.1279811 -0.091,0.1955837 0.00361,0.026828 0.080898,0.019993 0.1213464,0.02999 -0.00833,-3.459e-4 -0.021213,0.00358 -0.025011,-0.00103 C 2.507692,5.6318305 2.50407,5.6086645 2.494785,5.5869425 2.47882,5.5495962 2.4648756,5.511925 2.4484731,5.4746524 2.3667121,5.28886 2.2711587,5.1054294 2.1638482,4.9246737 2.0463162,4.7485781 1.970398,4.6235696 1.8259675,4.4538467 1.713319,4.3214717 1.5639917,4.178403 1.4241707,4.055649 1.3709061,4.0088862 1.3129732,3.9642219 1.2575712,3.9184173 1.2200324,3.8873815 1.1827562,3.8562249 1.1453487,3.8251287 c 0,0 -0.15474761,0.058216 -0.15474761,0.058216 z" />
  </g>
</svg>
